<svg width="58" height="58" viewBox="0 0 58 58" fill="none" xmlns="http://www.w3.org/2000/svg">
<path d="M16.2219 32.625L7.25 39.875V10.875C7.25 10.3943 7.44096 9.93328 7.78087 9.59337C8.12078 9.25346 8.5818 9.0625 9.0625 9.0625H38.0625C38.5432 9.0625 39.0042 9.25346 39.3441 9.59337C39.684 9.93328 39.875 10.3943 39.875 10.875V30.8125C39.875 31.2932 39.684 31.7542 39.3441 32.0941C39.0042 32.434 38.5432 32.625 38.0625 32.625H16.2219Z" stroke="white" stroke-width="3" stroke-linecap="round" stroke-linejoin="round"/>
<path d="M18.125 32.625V41.6875C18.125 42.1682 18.316 42.6292 18.6559 42.9691C18.9958 43.309 19.4568 43.5 19.9375 43.5H41.7781L50.75 50.75V21.75C50.75 21.2693 50.559 20.8083 50.2191 20.4684C49.8792 20.1285 49.4182 19.9375 48.9375 19.9375H39.875" stroke="white" stroke-width="3" stroke-linecap="round" stroke-linejoin="round"/>
</svg>
