<svg width="219" height="311" viewBox="0 0 219 311" fill="none" xmlns="http://www.w3.org/2000/svg">
<path d="M47.1677 301L52.5328 268.683H64.6517C67.1344 268.683 69.1437 269.146 70.6796 270.072C72.2155 270.987 73.2833 272.254 73.8829 273.875C74.4826 275.484 74.6088 277.32 74.2616 279.382C73.925 281.454 73.1833 283.295 72.0367 284.905C70.9005 286.514 69.4015 287.782 67.5394 288.708C65.6774 289.623 63.4998 290.08 61.0066 290.08H52.9747L53.7794 285.268H61.0224C62.4741 285.268 63.7049 285.015 64.7149 284.51C65.7353 284.005 66.54 283.311 67.1292 282.427C67.7183 281.543 68.1075 280.528 68.2969 279.382C68.4757 278.235 68.4178 277.225 68.1233 276.352C67.8287 275.479 67.2554 274.8 66.4033 274.316C65.5617 273.822 64.4098 273.575 62.9475 273.575H57.5824L53.022 301H47.1677ZM75.4688 301L79.5084 276.762H85.2207L81.1811 301H75.4688ZM83.2009 273.291C82.2857 273.291 81.5282 272.986 80.9286 272.375C80.329 271.765 80.066 271.034 80.1396 270.182C80.2133 269.33 80.5972 268.599 81.2915 267.989C81.9964 267.378 82.8011 267.073 83.7058 267.073C84.6211 267.073 85.3732 267.378 85.9624 267.989C86.562 268.599 86.825 269.33 86.7514 270.182C86.6882 271.034 86.3043 271.765 85.5994 272.375C84.9051 272.986 84.1056 273.291 83.2009 273.291ZM95.1344 286.798L92.799 301H87.0709L91.1105 276.762H96.5861L95.8918 280.881H96.1916C96.9491 279.524 98.0116 278.445 99.3791 277.646C100.747 276.846 102.34 276.447 104.16 276.447C105.812 276.447 107.201 276.804 108.326 277.52C109.452 278.224 110.251 279.261 110.725 280.628C111.198 281.985 111.272 283.632 110.946 285.567L108.358 301H102.646L105.06 286.451C105.333 284.841 105.128 283.579 104.444 282.664C103.771 281.738 102.688 281.275 101.194 281.275C100.194 281.275 99.2739 281.496 98.4324 281.938C97.5908 282.369 96.8807 282.995 96.3021 283.816C95.734 284.636 95.3448 285.63 95.1344 286.798ZM123.159 310.594C121.097 310.594 119.377 310.315 117.999 309.758C116.621 309.211 115.559 308.474 114.812 307.549C114.065 306.623 113.602 305.597 113.423 304.472L118.788 303.225C118.946 303.698 119.199 304.166 119.546 304.629C119.903 305.103 120.429 305.492 121.124 305.797C121.818 306.113 122.744 306.27 123.901 306.27C125.521 306.27 126.936 305.876 128.146 305.087C129.356 304.298 130.102 303.015 130.386 301.237L131.112 296.645H130.828C130.45 297.234 129.929 297.839 129.266 298.459C128.614 299.08 127.788 299.601 126.789 300.022C125.8 300.442 124.611 300.653 123.222 300.653C121.36 300.653 119.746 300.216 118.378 299.343C117.01 298.459 116.027 297.144 115.427 295.398C114.838 293.641 114.764 291.443 115.206 288.802C115.638 286.141 116.448 283.895 117.636 282.064C118.836 280.223 120.272 278.829 121.944 277.883C123.617 276.925 125.384 276.447 127.246 276.447C128.666 276.447 129.797 276.689 130.639 277.172C131.481 277.646 132.117 278.219 132.548 278.892C132.98 279.555 133.295 280.181 133.495 280.77H133.795L134.458 276.762H140.091L136.02 301.394C135.683 303.467 134.91 305.182 133.7 306.539C132.49 307.906 130.97 308.921 129.14 309.584C127.32 310.257 125.326 310.594 123.159 310.594ZM125.495 296.171C126.705 296.171 127.788 295.877 128.745 295.288C129.703 294.699 130.502 293.852 131.144 292.747C131.786 291.643 132.233 290.317 132.485 288.771C132.738 287.245 132.727 285.909 132.454 284.763C132.191 283.616 131.68 282.727 130.923 282.096C130.166 281.454 129.177 281.133 127.956 281.133C126.683 281.133 125.568 281.465 124.611 282.127C123.664 282.79 122.886 283.7 122.276 284.857C121.676 286.004 121.255 287.308 121.013 288.771C120.782 290.254 120.782 291.553 121.013 292.668C121.255 293.773 121.744 294.635 122.481 295.256C123.228 295.866 124.232 296.171 125.495 296.171ZM152.541 301.473C150.153 301.473 148.165 300.947 146.577 299.895C144.999 298.843 143.889 297.365 143.247 295.461C142.605 293.557 142.49 291.348 142.9 288.834C143.31 286.351 144.131 284.179 145.362 282.317C146.603 280.455 148.165 279.013 150.048 277.993C151.942 276.962 154.061 276.447 156.407 276.447C158.795 276.447 160.778 276.978 162.356 278.04C163.934 279.092 165.044 280.57 165.686 282.475C166.338 284.379 166.459 286.598 166.049 289.134C165.649 291.606 164.823 293.768 163.571 295.619C162.33 297.471 160.768 298.912 158.885 299.943C157.002 300.963 154.887 301.473 152.541 301.473ZM153.015 296.897C154.34 296.897 155.503 296.54 156.502 295.824C157.512 295.098 158.338 294.125 158.979 292.905C159.632 291.674 160.084 290.307 160.337 288.802C160.568 287.35 160.573 286.035 160.352 284.857C160.131 283.669 159.658 282.727 158.932 282.033C158.217 281.328 157.223 280.975 155.95 280.975C154.624 280.975 153.451 281.344 152.431 282.08C151.421 282.806 150.595 283.784 149.953 285.015C149.312 286.235 148.87 287.598 148.628 289.102C148.386 290.554 148.375 291.869 148.596 293.047C148.817 294.225 149.291 295.161 150.017 295.856C150.742 296.55 151.742 296.897 153.015 296.897Z" fill="black"/>
<path d="M118.521 21.1874C127.805 34.0939 136.79 46.9268 146.623 59.0724C154.947 69.3526 169.276 69.9257 179.067 61.0401C185.103 55.5629 190.766 49.6755 196.199 44.3607C194.722 41.2734 193.079 38.8747 192.409 36.2294C190.838 30.0239 194.173 24.007 200.008 21.668C205.922 19.2973 212.719 21.7572 215.93 27.4302C218.985 32.8285 217.414 39.3861 212.612 43.6392C210.701 45.3313 208.951 47.8009 208.307 50.2293C204.129 65.9752 200.287 81.8102 196.312 97.61C194.566 104.55 193.084 105.748 185.943 105.764C134.445 105.879 82.9459 105.974 31.4472 106.059C24.721 106.071 23.2729 104.954 21.6928 98.6091C17.5941 82.1523 13.568 65.677 9.37008 49.2456C8.97877 47.7139 7.87272 46.0025 6.58671 45.1227C0.0760851 40.669 -1.95727 32.8966 2.06748 26.8552C6.12067 20.7712 14.1723 19.1997 20.054 23.3446C26.3734 27.7981 27.3015 35.4925 22.3263 42.1686C22.0329 42.5622 21.7541 42.9667 21.475 43.3571C27.6434 49.6946 33.352 56.4671 39.9873 62.1592C49.3911 70.2264 63.6068 68.4525 71.5942 58.4089C81.1254 46.424 90.1552 34.0403 99.3398 21.9117C98.3547 19.9724 97.2097 18.2951 96.6154 16.4413C94.7551 10.6386 96.9853 4.83936 102.062 1.70368C106.381 -0.963829 113.164 -0.439202 117.001 2.85909C121.57 6.786 122.782 12.6622 120.134 18.2505C119.709 19.148 119.109 19.9629 118.521 21.1874Z" fill="#FDDC58"/>
<path d="M135.533 231.332C140.698 231.334 145.365 231.274 150.028 231.358C153.792 231.425 156.719 232.95 156.758 237.113C156.798 241.378 153.663 242.838 150.016 242.849C123.025 242.924 96.0321 242.921 69.0401 242.857C65.166 242.847 61.7751 241.262 62.0117 236.847C62.2419 232.55 65.6199 231.318 69.5528 231.322C91.3798 231.345 113.207 231.333 135.533 231.332Z" fill="#1F9889"/>
<path d="M106.385 145.59C110.302 145.59 113.752 145.59 117.631 145.59C117.631 150.239 117.631 154.347 117.631 158.976C122.28 158.976 126.501 158.976 130.984 158.976C130.984 164.736 130.984 169.971 130.984 175.63C126.752 175.63 122.639 175.63 117.915 175.63C117.915 180.263 117.915 184.496 117.915 188.996C112.083 188.996 106.863 188.996 101.156 188.996C101.156 184.571 101.156 180.321 101.156 175.705C96.5658 175.705 92.4563 175.705 88 175.705C88 170.098 88 164.869 88 159.266C92.2865 159.266 96.3921 159.266 101.023 159.266C101.023 154.682 101.023 150.442 101.023 145.889C102.993 145.769 104.455 145.679 106.385 145.59Z" fill="#F7F7F8"/>
<path d="M111.972 146.327C115.561 148.709 116.871 151.726 115.474 155.487C114.258 158.759 111.646 161.066 108.223 160.049C105.717 159.306 102.728 157.319 101.688 155.081C99.1311 149.58 103.955 145.472 111.972 146.327Z" fill="#F7F7F8"/>
<path d="M102 182.973C102.136 178.516 103.623 175.506 108.147 175.012C111.736 174.62 114.722 175.398 116.211 179.163C117.688 182.896 116.021 187.271 112.472 188.804C108.12 190.682 104.551 188.821 102 182.973Z" fill="#F7F7F8"/>
<path d="M102.343 165.067C104.048 160.54 107.56 159.175 111.216 160.527C113.404 161.335 115.763 164.104 116.247 166.375C116.68 168.405 115.26 172.045 113.548 173.014C111.364 174.25 107.78 174.316 105.315 173.438C101.967 172.246 101.552 168.796 102.343 165.067Z" fill="#F8F8F9"/>
<path d="M107.755 174.378C102.761 172.216 100.914 168.603 102.62 164.463C104.195 160.64 107.498 159.491 111.25 160.336C115.566 161.307 116.934 164.558 116.43 168.684C115.827 173.621 112.497 174.768 107.755 174.378Z" fill="#FBFBFB"/>
<path d="M122.819 113.021C136.981 113.023 150.643 112.985 164.305 113.035C191.635 113.135 215.095 134.361 217.735 161.324C220.517 189.738 201.633 215.677 174.216 220.831C170.155 221.594 165.922 221.665 161.768 221.673C126.613 221.735 91.4548 221.385 56.3054 221.807C26.6987 222.163 6.32178 201.152 1.33174 179.21C-6.21922 146.007 19.3109 113.168 53.3434 113.044C76.335 112.96 99.3273 113.023 122.819 113.021ZM190.684 132.634C185.012 129.969 179.566 125.933 173.617 124.954C164.179 123.4 154.405 123.606 144.772 123.566C114.62 123.441 84.4664 123.739 54.3161 123.515C24.3014 123.292 0.455829 152.872 12.5413 184.649C24.7792 216.826 66.7632 223.317 88.7806 196.813C91.215 193.882 93.6273 192.909 97.2346 193.023C104.56 193.255 111.914 193.392 119.224 192.984C123.849 192.726 126.729 194.287 129.72 197.815C146.893 218.078 178.346 218.154 196.486 198.769C212.679 181.465 212.804 149.771 190.684 132.634Z" fill="#C66AE1"/>
<path d="M190.977 132.843C212.805 149.771 212.679 181.465 196.486 198.769C178.346 218.154 146.894 218.078 129.72 197.815C126.73 194.287 123.849 192.726 119.224 192.984C111.914 193.392 104.56 193.255 97.2348 193.023C93.6275 192.909 91.2152 193.882 88.7809 196.813C66.7635 223.317 24.7794 216.826 12.5415 184.649C0.456049 152.872 24.3016 123.292 54.3163 123.515C84.4666 123.739 114.621 123.441 144.772 123.566C154.406 123.606 164.179 123.4 173.617 124.954C179.566 125.933 185.012 129.969 190.977 132.843ZM50.5447 146.432C49.0825 146.522 47.6203 146.611 45.6504 146.731C45.6504 151.285 45.6504 155.524 45.6504 160.108C41.0195 160.108 36.9139 160.108 32.6274 160.108C32.6274 165.711 32.6274 170.94 32.6274 176.547C37.0837 176.547 41.1933 176.547 45.7839 176.547C45.7839 181.163 45.7839 185.413 45.7839 189.838C51.4907 189.838 56.71 189.838 62.5425 189.838C62.5425 185.338 62.5425 181.105 62.5425 176.472C67.2668 176.472 71.3798 176.472 75.6111 176.472C75.6111 170.813 75.6111 165.578 75.6111 159.819C71.1282 159.819 66.9075 159.819 62.2586 159.819C62.2586 155.189 62.2586 151.081 62.2586 146.432C58.3792 146.432 54.9297 146.432 50.5447 146.432ZM166.278 147.029C158.609 146.314 153.785 150.422 156.342 155.924C157.382 158.162 160.371 160.148 162.877 160.892C166.3 161.908 168.912 159.601 170.128 156.329C171.525 152.568 170.215 149.551 166.278 147.029ZM155.912 184.21C158.415 189.663 161.984 191.525 166.335 189.646C169.885 188.113 171.552 183.738 170.075 180.005C168.586 176.24 165.6 175.462 162.011 175.854C157.487 176.348 156 179.358 155.912 184.21ZM171.546 166.288C170.821 169.639 171.236 173.088 174.584 174.28C177.049 175.158 180.632 175.092 182.817 173.856C184.529 172.887 185.948 169.247 185.516 167.217C185.032 164.946 182.673 162.177 180.485 161.369C176.829 160.017 173.317 161.383 171.546 166.288ZM147.551 175.26C151.875 175.61 155.205 174.463 155.808 169.526C156.312 165.4 154.944 162.15 150.628 161.178C146.876 160.333 143.573 161.482 141.998 165.305C140.292 169.445 142.139 173.058 147.551 175.26Z" fill="#08082D"/>
</svg>
