<svg width="45" height="41" viewBox="0 0 45 41" fill="none" xmlns="http://www.w3.org/2000/svg">
<path d="M20.8363 41C9.71501 41 0.699951 31.985 0.699951 20.8636C0.699951 9.7423 9.71501 0.72724 20.8363 0.72724C23.9628 0.724891 27.0468 1.45169 29.8432 2.8499C32.6396 4.24811 35.0714 6.27919 36.9454 8.78179H31.4885C29.1632 6.73143 26.2957 5.39557 23.23 4.93454C20.1643 4.4735 17.0307 4.90686 14.2052 6.18262C11.3797 7.45837 8.98234 9.52233 7.3008 12.1268C5.61925 14.7313 4.72495 17.7657 4.72521 20.8659C4.72547 23.966 5.62027 27.0002 7.30225 29.6045C8.98423 32.2087 11.3819 34.2722 14.2076 35.5475C17.0334 36.8228 20.167 37.2556 23.2326 36.7941C26.2982 36.3325 29.1656 34.9962 31.4905 32.9455H36.9475C35.0732 35.4483 32.6411 37.4796 29.8443 38.8778C27.0475 40.276 23.9632 41.0027 20.8363 41ZM34.9318 28.9182V22.8773H18.8227V18.85H34.9318V12.8091L45 20.8636L34.9318 28.9182Z" fill="#EB5757"/>
</svg>
