<svg width="42" height="36" viewBox="0 0 42 36" fill="none" xmlns="http://www.w3.org/2000/svg">
<path d="M20.5412 16.2862C22.8627 16.2862 25.1321 15.8247 27.0623 14.9601C28.9926 14.0954 30.497 12.8665 31.3854 11.4287C32.2738 9.99084 32.5063 8.40869 32.0534 6.8823C31.6005 5.35591 30.4826 3.95382 28.841 2.85336C27.1995 1.75289 25.108 1.00346 22.8311 0.699845C20.5542 0.396227 18.1941 0.552054 16.0494 1.14762C13.9046 1.74319 12.0714 2.75175 10.7816 4.04576C9.49187 5.33978 8.80347 6.86112 8.80347 8.41742C8.80347 10.5043 10.0401 12.5058 12.2414 13.9815C14.4426 15.4572 17.4281 16.2862 20.5412 16.2862Z" fill="#7B7B7B"/>
<path d="M38.1476 35.9581C38.9258 35.9581 39.6722 35.7508 40.2225 35.3819C40.7729 35.013 41.082 34.5126 41.082 33.9909C41.082 30.3388 38.9179 26.8362 35.0657 24.2538C31.2135 21.6714 25.9888 20.2206 20.541 20.2206C15.0932 20.2206 9.86851 21.6714 6.01632 24.2538C2.16414 26.8362 8.11787e-08 30.3388 0 33.9909C0 34.5126 0.309163 35.013 0.859475 35.3819C1.40979 35.7508 2.15617 35.9581 2.93443 35.9581H38.1476Z" fill="#7B7B7B"/>
</svg>
