<svg width="42" height="42" viewBox="0 0 42 42" fill="none" xmlns="http://www.w3.org/2000/svg">
<path fill-rule="evenodd" clip-rule="evenodd" d="M31.7777 18.8949C23.9978 18.8949 22.3303 17.2274 22.3303 9.44743C22.3303 1.66747 23.9978 0 31.7777 0C39.5577 0 41.2251 1.66747 41.2251 9.44743C41.2251 17.2274 39.5577 18.8949 31.7777 18.8949ZM27.7647 15.1591C28.6456 15.3549 29.9111 15.4594 31.7777 15.4594C33.6443 15.4594 34.9098 15.3549 35.7907 15.1591C36.6327 14.972 36.899 14.7502 36.9897 14.6594C37.0804 14.5687 37.3023 14.3024 37.4894 13.4604C37.6852 12.5795 37.7897 11.314 37.7897 9.44743C37.7897 7.58085 37.6852 6.31536 37.4894 5.43441C37.3023 4.59247 37.0804 4.32619 36.9897 4.23545C36.899 4.1447 36.6327 3.92283 35.7907 3.73571C34.9098 3.53993 33.6443 3.43543 31.7777 3.43543C29.9111 3.43543 28.6456 3.53993 27.7647 3.73571C26.9228 3.92283 26.6565 4.1447 26.5657 4.23545C26.475 4.32619 26.2531 4.59247 26.066 5.43441C25.8702 6.31536 25.7657 7.58085 25.7657 9.44743C25.7657 11.314 25.8702 12.5795 26.066 13.4604C26.2531 14.3024 26.475 14.5687 26.5657 14.6594C26.6565 14.7502 26.9228 14.972 27.7647 15.1591Z" fill="#F2F2F2"/>
<path fill-rule="evenodd" clip-rule="evenodd" d="M9.44743 41.2251C1.66747 41.2251 0 39.5577 0 31.7777C0 23.9978 1.66747 22.3303 9.44743 22.3303C17.2274 22.3303 18.8949 23.9978 18.8949 31.7777C18.8949 39.5577 17.2274 41.2251 9.44743 41.2251ZM3.73571 35.7907C3.53993 34.9098 3.43543 33.6443 3.43543 31.7777C3.43543 29.9111 3.53993 28.6456 3.73571 27.7647C3.92283 26.9228 4.1447 26.6565 4.23545 26.5657C4.32619 26.475 4.59247 26.2531 5.43441 26.066C6.31536 25.8702 7.58085 25.7657 9.44743 25.7657C11.314 25.7657 12.5795 25.8702 13.4604 26.066C14.3024 26.2531 14.5687 26.475 14.6594 26.5657C14.7502 26.6565 14.972 26.9228 15.1591 27.7647C15.3549 28.6456 15.4594 29.9111 15.4594 31.7777C15.4594 33.6443 15.3549 34.9098 15.1591 35.7907C14.972 36.6327 14.7502 36.899 14.6594 36.9897C14.5687 37.0804 14.3024 37.3023 13.4604 37.4894C12.5795 37.6852 11.314 37.7897 9.44743 37.7897C7.58085 37.7897 6.31536 37.6852 5.43441 37.4894C4.59247 37.3023 4.32619 37.0804 4.23545 36.9897C4.1447 36.899 3.92283 36.6327 3.73571 35.7907Z" fill="#F2F2F2"/>
<path fill-rule="evenodd" clip-rule="evenodd" d="M0 9.44743C0 17.2274 1.66747 18.8949 9.44743 18.8949C17.2274 18.8949 18.8949 17.2274 18.8949 9.44743C18.8949 1.66747 17.2274 0 9.44743 0C1.66747 0 0 1.66747 0 9.44743ZM3.43543 9.44743C3.43543 11.314 3.53993 12.5795 3.73571 13.4604C3.92283 14.3024 4.1447 14.5687 4.23545 14.6594C4.32619 14.7502 4.59247 14.972 5.43441 15.1591C6.31536 15.3549 7.58085 15.4594 9.44743 15.4594C11.314 15.4594 12.5795 15.3549 13.4604 15.1591C14.3024 14.972 14.5687 14.7502 14.6594 14.6594C14.7502 14.5687 14.972 14.3024 15.1591 13.4604C15.3549 12.5795 15.4594 11.314 15.4594 9.44743C15.4594 7.58085 15.3549 6.31536 15.1591 5.43441C14.972 4.59247 14.7502 4.32619 14.6594 4.23545C14.5687 4.1447 14.3024 3.92282 13.4604 3.73571C12.5795 3.53993 11.314 3.43543 9.44743 3.43543C7.58085 3.43543 6.31536 3.53993 5.43441 3.73571C4.59247 3.92282 4.32619 4.1447 4.23545 4.23545C4.1447 4.32619 3.92283 4.59247 3.73571 5.43441C3.53993 6.31536 3.43543 7.58085 3.43543 9.44743Z" fill="#F2F2F2"/>
<path fill-rule="evenodd" clip-rule="evenodd" d="M22.3303 31.7777C22.3303 39.5577 23.9978 41.2251 31.7777 41.2251C39.5577 41.2251 41.2251 39.5577 41.2251 31.7777C41.2251 23.9978 39.5577 22.3303 31.7777 22.3303C23.9978 22.3303 22.3303 23.9978 22.3303 31.7777ZM25.7657 31.7777C25.7657 33.6443 25.8702 34.9098 26.066 35.7907C26.2531 36.6327 26.475 36.899 26.5657 36.9897C26.6565 37.0804 26.9228 37.3023 27.7647 37.4894C28.6456 37.6852 29.9111 37.7897 31.7777 37.7897C33.6443 37.7897 34.9098 37.6852 35.7907 37.4894C36.6327 37.3023 36.899 37.0804 36.9897 36.9897C37.0804 36.899 37.3023 36.6327 37.4894 35.7907C37.6852 34.9098 37.7897 33.6443 37.7897 31.7777C37.7897 29.9111 37.6852 28.6456 37.4894 27.7647C37.3023 26.9228 37.0804 26.6565 36.9897 26.5657C36.899 26.475 36.6327 26.2531 35.7907 26.066C34.9098 25.8702 33.6443 25.7657 31.7777 25.7657C29.9111 25.7657 28.6456 25.8702 27.7647 26.066C26.9228 26.2531 26.6565 26.475 26.5657 26.5657C26.475 26.6565 26.2531 26.9228 26.066 27.7647C25.8702 28.6456 25.7657 29.9111 25.7657 31.7777Z" fill="#F2F2F2"/>
</svg>
